<svg width="20" height="26" viewBox="0 0 20 26" fill="none" xmlns="http://www.w3.org/2000/svg">
<path d="M10 0C4.47143 0 0 4.069 0 9.1C0 11.362 0.714285 13.481 2.01429 15.392C3.37143 17.394 5.15714 19.11 6.52857 21.112C7.2 22.087 7.68571 22.997 8.2 24.05C8.57143 24.765 8.87143 26 10 26C11.1286 26 11.4286 24.765 11.7857 24.05C12.3143 22.997 12.7857 22.087 13.4571 21.112C14.8286 19.123 16.6143 17.407 17.9714 15.392C19.2857 13.481 20 11.362 20 9.1C20 4.069 15.5286 0 10 0ZM10 12.675C8.02857 12.675 6.42857 11.219 6.42857 9.425C6.42857 7.631 8.02857 6.175 10 6.175C11.9714 6.175 13.5714 7.631 13.5714 9.425C13.5714 11.219 11.9714 12.675 10 12.675Z" fill="#077DF8"/>
</svg>
