<svg width="31" height="34" viewBox="0 0 31 34" fill="none" xmlns="http://www.w3.org/2000/svg">
<path d="M15.6672 19.8112C15.9199 19.8112 16.1669 19.7317 16.3771 19.5827C16.5872 19.4338 16.751 19.222 16.8477 18.9743C16.9444 18.7266 16.9697 18.454 16.9204 18.191C16.8711 17.928 16.7494 17.6864 16.5707 17.4968C16.392 17.3072 16.1643 17.1781 15.9165 17.1258C15.6686 17.0734 15.4117 17.1003 15.1782 17.2029C14.9448 17.3055 14.7452 17.4793 14.6048 17.7022C14.4644 17.9252 14.3895 18.1873 14.3895 18.4555C14.3895 18.815 14.5241 19.1599 14.7637 19.4141C15.0033 19.6684 15.3283 19.8112 15.6672 19.8112ZM22.0558 19.8112C22.3086 19.8112 22.5556 19.7317 22.7657 19.5827C22.9758 19.4338 23.1396 19.222 23.2363 18.9743C23.333 18.7266 23.3583 18.454 23.309 18.191C23.2597 17.928 23.138 17.6864 22.9593 17.4968C22.7806 17.3072 22.553 17.1781 22.3051 17.1258C22.0573 17.0734 21.8004 17.1003 21.5669 17.2029C21.3334 17.3055 21.1338 17.4793 20.9934 17.7022C20.853 17.9252 20.7781 18.1873 20.7781 18.4555C20.7781 18.815 20.9127 19.1599 21.1523 19.4141C21.392 19.6684 21.717 19.8112 22.0558 19.8112ZM15.6672 25.2343C15.9199 25.2343 16.1669 25.1547 16.3771 25.0058C16.5872 24.8568 16.751 24.6451 16.8477 24.3973C16.9444 24.1496 16.9697 23.877 16.9204 23.614C16.8711 23.351 16.7494 23.1094 16.5707 22.9198C16.392 22.7302 16.1643 22.6011 15.9165 22.5488C15.6686 22.4965 15.4117 22.5233 15.1782 22.6259C14.9448 22.7286 14.7452 22.9023 14.6048 23.1253C14.4644 23.3482 14.3895 23.6104 14.3895 23.8785C14.3895 24.2381 14.5241 24.5829 14.7637 24.8372C15.0033 25.0914 15.3283 25.2343 15.6672 25.2343ZM22.0558 25.2343C22.3086 25.2343 22.5556 25.1547 22.7657 25.0058C22.9758 24.8568 23.1396 24.6451 23.2363 24.3973C23.333 24.1496 23.3583 23.877 23.309 23.614C23.2597 23.351 23.138 23.1094 22.9593 22.9198C22.7806 22.7302 22.553 22.6011 22.3051 22.5488C22.0573 22.4965 21.8004 22.5233 21.5669 22.6259C21.3334 22.7286 21.1338 22.9023 20.9934 23.1253C20.853 23.3482 20.7781 23.6104 20.7781 23.8785C20.7781 24.2381 20.9127 24.5829 21.1523 24.8372C21.392 25.0914 21.717 25.2343 22.0558 25.2343ZM9.27854 19.8112C9.53125 19.8112 9.77829 19.7317 9.98841 19.5827C10.1985 19.4338 10.3623 19.222 10.459 18.9743C10.5557 18.7266 10.581 18.454 10.5317 18.191C10.4824 17.928 10.3607 17.6864 10.182 17.4968C10.0033 17.3072 9.77567 17.1781 9.52782 17.1258C9.27996 17.0734 9.02305 17.1003 8.78958 17.2029C8.5561 17.3055 8.35655 17.4793 8.21615 17.7022C8.07575 17.9252 8.00081 18.1873 8.00081 18.4555C8.00081 18.815 8.13543 19.1599 8.37505 19.4141C8.61467 19.6684 8.93967 19.8112 9.27854 19.8112ZM24.6113 6.25363H23.3336V4.89787C23.3336 4.5383 23.199 4.19346 22.9593 3.93921C22.7197 3.68495 22.3947 3.54211 22.0558 3.54211C21.717 3.54211 21.392 3.68495 21.1523 3.93921C20.9127 4.19346 20.7781 4.5383 20.7781 4.89787V6.25363H10.5563V4.89787C10.5563 4.5383 10.4217 4.19346 10.182 3.93921C9.94241 3.68495 9.61742 3.54211 9.27854 3.54211C8.93967 3.54211 8.61467 3.68495 8.37505 3.93921C8.13543 4.19346 8.00081 4.5383 8.00081 4.89787V6.25363H6.72308C5.70646 6.25363 4.73147 6.68215 4.01261 7.44491C3.29375 8.20767 2.88989 9.2422 2.88989 10.3209V26.59C2.88989 27.6687 3.29375 28.7033 4.01261 29.466C4.73147 30.2288 5.70646 30.6573 6.72308 30.6573H24.6113C25.6279 30.6573 26.6029 30.2288 27.3218 29.466C28.0406 28.7033 28.4445 27.6687 28.4445 26.59V10.3209C28.4445 9.2422 28.0406 8.20767 27.3218 7.44491C26.6029 6.68215 25.6279 6.25363 24.6113 6.25363ZM25.889 26.59C25.889 26.9496 25.7544 27.2944 25.5148 27.5487C25.2752 27.8029 24.9502 27.9458 24.6113 27.9458H6.72308C6.38421 27.9458 6.05921 27.8029 5.81959 27.5487C5.57997 27.2944 5.44535 26.9496 5.44535 26.59V14.3882H25.889V26.59ZM25.889 11.6767H5.44535V10.3209C5.44535 9.96134 5.57997 9.6165 5.81959 9.36224C6.05921 9.10799 6.38421 8.96515 6.72308 8.96515H24.6113C24.9502 8.96515 25.2752 9.10799 25.5148 9.36224C25.7544 9.6165 25.889 9.96134 25.889 10.3209V11.6767ZM9.27854 25.2343C9.53125 25.2343 9.77829 25.1547 9.98841 25.0058C10.1985 24.8568 10.3623 24.6451 10.459 24.3973C10.5557 24.1496 10.581 23.877 10.5317 23.614C10.4824 23.351 10.3607 23.1094 10.182 22.9198C10.0033 22.7302 9.77567 22.6011 9.52782 22.5488C9.27996 22.4965 9.02305 22.5233 8.78958 22.6259C8.5561 22.7286 8.35655 22.9023 8.21615 23.1253C8.07575 23.3482 8.00081 23.6104 8.00081 23.8785C8.00081 24.2381 8.13543 24.5829 8.37505 24.8372C8.61467 25.0914 8.93967 25.2343 9.27854 25.2343Z" fill="#222222"/>
</svg>
