<svg width="22" height="22" viewBox="0 0 22 22" fill="none" xmlns="http://www.w3.org/2000/svg">
<path d="M15.5833 2.74999H19.2499C19.493 2.74999 19.7262 2.84657 19.8981 3.01848C20.07 3.19038 20.1666 3.42354 20.1666 3.66666V18.3333C20.1666 18.5764 20.07 18.8096 19.8981 18.9815C19.7262 19.1534 19.493 19.25 19.2499 19.25H2.74992C2.5068 19.25 2.27365 19.1534 2.10174 18.9815C1.92983 18.8096 1.83325 18.5764 1.83325 18.3333V3.66666C1.83325 3.42354 1.92983 3.19038 2.10174 3.01848C2.27365 2.84657 2.5068 2.74999 2.74992 2.74999H6.41659V0.916656H8.24992V2.74999H13.7499V0.916656H15.5833V2.74999ZM3.66659 8.24999V17.4167H18.3333V8.24999H3.66659ZM5.49992 11.9167H10.0833V15.5833H5.49992V11.9167Z" fill="#007DF8"/>
</svg>
