<svg width="22" height="20" viewBox="0 0 22 20" fill="none" xmlns="http://www.w3.org/2000/svg">
<g clip-path="url(#clip0_37_646)">
<path d="M21.9924 9.98047C21.9924 10.6836 21.4194 11.2344 20.7701 11.2344H19.5479L19.5747 17.4922C19.5823 18.8789 18.4861 20.0039 17.1302 20.0039H4.89271C3.54445 20.0039 2.44826 18.8828 2.44826 17.5039V11.2344H1.22222C0.534722 11.2344 0 10.6875 0 9.98047C0 9.62891 0.114583 9.31641 0.381944 9.04297L10.175 0.3125C10.4424 0.0390625 10.7479 0 11.0153 0C11.2826 0 11.5882 0.078125 11.8174 0.273438L15.8889 3.93359V2.5C15.8889 1.80859 16.4351 1.25 17.1111 1.25H18.3333C19.0094 1.25 19.5556 1.80859 19.5556 2.5V7.22656L21.5722 9.03906C21.8778 9.3125 22.0306 9.625 21.9924 9.97656V9.98047ZM10.3889 7.5C10.0528 7.5 9.77778 7.78125 9.77778 8.125V10H7.94445C7.60833 10 7.33333 10.2812 7.33333 10.625V11.875C7.33333 12.2188 7.60833 12.5 7.94445 12.5H9.77778V14.375C9.77778 14.7188 10.0528 15 10.3889 15H11.6111C11.9472 15 12.2222 14.7188 12.2222 14.375V12.5H14.0556C14.3917 12.5 14.6667 12.2188 14.6667 11.875V10.625C14.6667 10.2812 14.3917 10 14.0556 10H12.2222V8.125C12.2222 7.78125 11.9472 7.5 11.6111 7.5H10.3889Z" fill="#077DF8"/>
</g>
<defs>
<clipPath id="clip0_37_646">
<rect width="22" height="20" fill="white"/>
</clipPath>
</defs>
</svg>
