<svg width="26" height="29" viewBox="0 0 26 29" fill="none" xmlns="http://www.w3.org/2000/svg">
<path d="M7.8713 13.015C6.43303 13.015 5.05366 12.4437 4.03664 11.4267C3.01962 10.4097 2.44827 9.03029 2.44827 7.59201V3.25358C2.44827 2.96592 2.56254 2.69005 2.76594 2.48665C2.96935 2.28324 3.24522 2.16897 3.53288 2.16897H4.61748C4.90514 2.16897 5.18101 2.0547 5.38442 1.8513C5.58782 1.64789 5.70209 1.37202 5.70209 1.08436C5.70209 0.796708 5.58782 0.520833 5.38442 0.31743C5.18101 0.114027 4.90514 -0.000244141 4.61748 -0.000244141H3.53288C2.66991 -0.000244141 1.84229 0.342568 1.23208 0.952779C0.621865 1.56299 0.279053 2.39061 0.279053 3.25358V7.59201C0.280447 8.81733 0.579242 10.024 1.14978 11.1084C1.72031 12.1928 2.54553 13.1225 3.55457 13.8177C4.52402 14.6724 5.31023 15.7146 5.86574 16.8816C6.42125 18.0485 6.73454 19.3159 6.7867 20.6073C6.7867 22.6209 7.58659 24.552 9.01042 25.9758C10.4342 27.3997 12.3654 28.1996 14.379 28.1996C16.3925 28.1996 18.3237 27.3997 19.7475 25.9758C21.1713 24.552 21.9712 22.6209 21.9712 20.6073V19.3708C22.9936 19.1069 23.8847 18.479 24.4773 17.6051C25.0699 16.7311 25.3235 15.671 25.1904 14.6235C25.0574 13.576 24.5469 12.6129 23.7545 11.9149C22.9622 11.2169 21.9425 10.8317 20.8866 10.8317C19.8307 10.8317 18.811 11.2169 18.0186 11.9149C17.2263 12.6129 16.7158 13.576 16.5827 14.6235C16.4497 15.671 16.7032 16.7311 17.2959 17.6051C17.8885 18.479 18.7796 19.1069 19.802 19.3708V20.6073C19.802 22.0456 19.2306 23.4249 18.2136 24.442C17.1966 25.459 15.8172 26.0303 14.379 26.0303C12.9407 26.0303 11.5613 25.459 10.5443 24.442C9.52727 23.4249 8.95591 22.0456 8.95591 20.6073C9.01082 19.3143 9.32749 18.0459 9.88677 16.8789C10.4461 15.7119 11.2363 14.6704 12.2097 13.8177C13.2148 13.1201 14.0358 12.1893 14.6024 11.1051C15.1691 10.0208 15.4646 8.81541 15.4636 7.59201V3.25358C15.4636 2.39061 15.1207 1.56299 14.5105 0.952779C13.9003 0.342568 13.0727 -0.000244141 12.2097 -0.000244141H11.1251C10.8375 -0.000244141 10.5616 0.114027 10.3582 0.31743C10.1548 0.520833 10.0405 0.796708 10.0405 1.08436C10.0405 1.37202 10.1548 1.64789 10.3582 1.8513C10.5616 2.0547 10.8375 2.16897 11.1251 2.16897H12.2097C12.4974 2.16897 12.7733 2.28324 12.9767 2.48665C13.1801 2.69005 13.2943 2.96592 13.2943 3.25358V7.59201C13.2943 8.30417 13.1541 9.00936 12.8815 9.66731C12.609 10.3253 12.2095 10.9231 11.706 11.4267C11.2024 11.9303 10.6046 12.3297 9.94661 12.6022C9.28866 12.8748 8.58347 13.015 7.8713 13.015ZM20.8866 17.3535C20.3113 17.3535 19.7595 17.1249 19.3527 16.7181C18.9459 16.3113 18.7174 15.7596 18.7174 15.1843C18.7174 14.6089 18.9459 14.0572 19.3527 13.6504C19.7595 13.2436 20.3113 13.015 20.8866 13.015C21.4619 13.015 22.0137 13.2436 22.4205 13.6504C22.8273 14.0572 23.0558 14.6089 23.0558 15.1843C23.0558 15.7596 22.8273 16.3113 22.4205 16.7181C22.0137 17.1249 21.4619 17.3535 20.8866 17.3535Z" fill="#222222"/>
</svg>
