<svg width="18" height="16" viewBox="0 0 18 16" fill="none" xmlns="http://www.w3.org/2000/svg">
<path d="M2.17613 7.33862C1.42556 7.05456 0.837607 6.41924 0.634392 5.6079C0.634305 5.60755 0.634217 5.6072 0.63413 5.60685L0.515921 5.12469L0.51593 5.12469L0.515206 5.12181C0.44834 4.85591 0.609953 4.58376 0.879729 4.51632C1.14891 4.44903 1.41844 4.61058 1.48596 4.88065L1.48615 4.88138L1.60744 5.36341C1.60755 5.36384 1.60765 5.36426 1.60776 5.36469C1.77298 6.03248 2.3741 6.5 3.06171 6.5H3.99926H4.49929H9.36055L12.4997 8.29333V15C12.4997 15.277 12.2767 15.5 11.9997 15.5H10.9996C10.7226 15.5 10.4996 15.277 10.4996 15V11.4V10.5819L9.77154 10.955C9.09084 11.3039 8.31881 11.5 7.49945 11.5C6.68008 11.5 5.90806 11.3039 5.22735 10.955L4.49932 10.5819V11.4V15C4.49932 15.277 4.2763 15.5 3.99926 15.5H2.99921C2.72217 15.5 2.49916 15.277 2.49916 15V7.80625V7.46087L2.17613 7.33862ZM12.841 5.91753L12.7999 6.16308L10.225 4.69177L10.8897 0.700953C10.8897 0.700934 10.8897 0.700915 10.8897 0.700896C10.9089 0.585927 11.0095 0.5 11.1278 0.5C11.2048 0.5 11.2754 0.535287 11.3216 0.596886L11.3218 0.597169L11.8499 1.30029L11.9999 1.5H12.2497H13.8779C13.8982 1.5 13.9184 1.50063 13.9385 1.50188C13.6957 1.51677 13.4657 1.61984 13.2927 1.79288C13.1051 1.98042 12.9998 2.23478 12.9998 2.5C12.9998 2.76522 13.1051 3.01958 13.2927 3.20712C13.4802 3.39465 13.7346 3.5 13.9998 3.5C14.265 3.5 14.5194 3.39465 14.7069 3.20712C14.8945 3.01958 14.9998 2.76522 14.9998 2.5C14.9998 2.3764 14.9769 2.25517 14.9335 2.14195L15.1473 2.35455L15.2936 2.5H15.4999H17.25C17.3895 2.5 17.5 2.61054 17.5 2.75V3.5C17.5 4.60508 16.6051 5.5 15.4999 5.5H14.4998H13.9998H13.3341H12.9108L12.841 5.91753Z" fill="#007DF8" stroke="#007DF8"/>
</svg>
