<svg width="22" height="22" viewBox="0 0 22 22" fill="none" xmlns="http://www.w3.org/2000/svg">
<path d="M2.05625 6.28283L10.5327 1.20083C10.6751 1.11535 10.8381 1.0702 11.0043 1.0702C11.1704 1.0702 11.3334 1.11535 11.4759 1.20083L19.9441 6.28375C20.012 6.32446 20.0683 6.38209 20.1073 6.45101C20.1463 6.51993 20.1668 6.59779 20.1668 6.677V18.3333C20.1668 18.5764 20.0703 18.8096 19.8983 18.9815C19.7264 19.1534 19.4933 19.25 19.2502 19.25H2.75016C2.50705 19.25 2.27389 19.1534 2.10198 18.9815C1.93007 18.8096 1.8335 18.5764 1.8335 18.3333V6.67608C1.83348 6.59687 1.85399 6.51901 1.89303 6.45009C1.93207 6.38117 1.9883 6.32354 2.05625 6.28283ZM16.8173 7.557L11.0561 12.5427L5.17658 7.5515L3.99041 8.9485L11.0671 14.9572L18.0163 8.94392L16.8173 7.557V7.557Z" fill="url(#paint0_linear_430_2519)"/>
<defs>
<linearGradient id="paint0_linear_430_2519" x1="17.3525" y1="17.5973" x2="4.62513" y2="17.2346" gradientUnits="userSpaceOnUse">
<stop stop-color="#2AB0B6"/>
<stop offset="1" stop-color="#12AAB0"/>
</linearGradient>
</defs>
</svg>
