<svg width="26" height="28" viewBox="0 0 26 28" fill="none" xmlns="http://www.w3.org/2000/svg">
<path d="M23.0148 11.5306C23.0148 11.171 22.8802 10.8262 22.6406 10.5719C22.401 10.3177 22.076 10.1748 21.7371 10.1748C21.3982 10.1748 21.0732 10.3177 20.8336 10.5719C20.594 10.8262 20.4594 11.171 20.4594 11.5306H23.0148ZM5.12662 11.5306C5.12662 11.171 4.992 10.8262 4.75238 10.5719C4.51276 10.3177 4.18777 10.1748 3.84889 10.1748C3.51002 10.1748 3.18502 10.3177 2.9454 10.5719C2.70578 10.8262 2.57116 11.171 2.57116 11.5306H5.12662ZM23.3892 15.2006C23.6302 15.4476 23.953 15.5843 24.288 15.5812C24.623 15.5781 24.9435 15.4355 25.1804 15.1841C25.4173 14.9328 25.5516 14.5927 25.5546 14.2372C25.5575 13.8818 25.4287 13.5393 25.1959 13.2836L23.3892 15.2006ZM12.793 2.04028L13.6964 1.08176C13.4567 0.827597 13.1318 0.684814 12.793 0.684814C12.4542 0.684814 12.1293 0.827597 11.8896 1.08176L12.793 2.04028ZM0.390076 13.2836C0.26804 13.4087 0.170699 13.5583 0.103735 13.7237C0.0367703 13.8891 0.00152251 14.067 4.82429e-05 14.247C-0.00142602 14.427 0.0309028 14.6055 0.0951482 14.7722C0.159394 14.9388 0.254269 15.0901 0.374238 15.2174C0.494208 15.3447 0.636869 15.4454 0.793897 15.5136C0.950926 15.5817 1.11918 15.6161 1.28883 15.6145C1.45849 15.6129 1.62615 15.5755 1.78204 15.5045C1.93793 15.4334 2.07892 15.3301 2.19679 15.2006L0.390076 13.2836ZM6.40435 27.7997H19.1817V25.0882H6.40435V27.7997ZM23.0148 23.7324V11.5306H20.4594V23.7324H23.0148ZM5.12662 23.7324V11.5306H2.57116V23.7324H5.12662ZM25.1959 13.2836L13.6964 1.08176L11.8896 2.99881L23.3892 15.2006L25.1959 13.2836ZM11.8896 1.08176L0.390076 13.2836L2.19679 15.2006L13.6964 2.99881L11.8896 1.08176ZM19.1817 27.7997C20.1983 27.7997 21.1733 27.3712 21.8921 26.6084C22.611 25.8457 23.0148 24.8111 23.0148 23.7324H20.4594C20.4594 24.092 20.3248 24.4368 20.0851 24.6911C19.8455 24.9454 19.5205 25.0882 19.1817 25.0882V27.7997ZM6.40435 25.0882C6.06548 25.0882 5.74048 24.9454 5.50086 24.6911C5.26124 24.4368 5.12662 24.092 5.12662 23.7324H2.57116C2.57116 24.8111 2.97501 25.8457 3.69388 26.6084C4.41274 27.3712 5.38773 27.7997 6.40435 27.7997V25.0882Z" fill="#077DF8"/>
</svg>
