<svg width="28" height="28" viewBox="0 0 28 28" fill="none" xmlns="http://www.w3.org/2000/svg">
<path d="M18 0H10H8C6.89375 0 6 0.782031 6 1.75C6 2.71797 6.89375 3.5 8 3.5V10.7625C8 11.4078 7.79375 12.0477 7.40625 12.5945L0.64375 22.2141C0.225 22.8156 0 23.4992 0 24.2047C0 26.2992 1.94375 28 4.3375 28H23.6625C26.0563 28 28 26.2992 28 24.2047C28 23.5047 27.775 22.8156 27.3563 22.2141L20.5938 12.6C20.2063 12.0477 20 11.4133 20 10.768V3.5C21.1063 3.5 22 2.71797 22 1.75C22 0.782031 21.1063 0 20 0H18ZM12 10.7625V3.5H16V10.7625C16 12.0586 16.4125 13.3273 17.1875 14.432L19.3438 17.5H8.65625L10.8125 14.432C11.5875 13.3273 12 12.0586 12 10.7625Z" fill="#0D7191"/>
</svg>
