<svg width="22" height="22" viewBox="0 0 22 22" fill="none" xmlns="http://www.w3.org/2000/svg">
<path d="M16.5 7.33333H18.3333C18.5764 7.33333 18.8096 7.42991 18.9815 7.60182C19.1534 7.77373 19.25 8.00689 19.25 8.25V19.25C19.25 19.4931 19.1534 19.7263 18.9815 19.8982C18.8096 20.0701 18.5764 20.1667 18.3333 20.1667H3.66667C3.42355 20.1667 3.19039 20.0701 3.01849 19.8982C2.84658 19.7263 2.75 19.4931 2.75 19.25V8.25C2.75 8.00689 2.84658 7.77373 3.01849 7.60182C3.19039 7.42991 3.42355 7.33333 3.66667 7.33333H5.5V6.41667C5.5 4.95798 6.07946 3.55903 7.11091 2.52758C8.14236 1.49613 9.54131 0.916668 11 0.916668C12.4587 0.916668 13.8576 1.49613 14.8891 2.52758C15.9205 3.55903 16.5 4.95798 16.5 6.41667V7.33333ZM14.6667 7.33333V6.41667C14.6667 5.44421 14.2804 4.51158 13.5927 3.82394C12.9051 3.13631 11.9725 2.75 11 2.75C10.0275 2.75 9.09491 3.13631 8.40728 3.82394C7.71964 4.51158 7.33333 5.44421 7.33333 6.41667V7.33333H14.6667ZM10.0833 12.8333V14.6667H11.9167V12.8333H10.0833ZM6.41667 12.8333V14.6667H8.25V12.8333H6.41667ZM13.75 12.8333V14.6667H15.5833V12.8333H13.75Z" fill="url(#paint0_linear_430_1268)"/>
<defs>
<linearGradient id="paint0_linear_430_1268" x1="16.7171" y1="18.4167" x2="5.25989" y2="18.1392" gradientUnits="userSpaceOnUse">
<stop stop-color="#2AB0B6"/>
<stop offset="1" stop-color="#12AAB0"/>
</linearGradient>
</defs>
</svg>
