<svg width="28" height="28" viewBox="0 0 28 28" fill="none" xmlns="http://www.w3.org/2000/svg">
<path d="M5.6 18.6667V3.73333C5.6 1.67417 7.27417 0 9.33333 0H24.2667C26.3258 0 28 1.67417 28 3.73333V15.2542C28 16.2458 27.6092 17.1967 26.9092 17.8967L23.4967 21.3092C22.7967 22.0092 21.8458 22.4 20.8542 22.4H9.33333C7.27417 22.4 5.6 20.7258 5.6 18.6667ZM15.8667 5.6C15.3533 5.6 14.9333 6.02 14.9333 6.53333V9.33333H12.1333C11.62 9.33333 11.2 9.75333 11.2 10.2667V12.1333C11.2 12.6467 11.62 13.0667 12.1333 13.0667H14.9333V15.8667C14.9333 16.38 15.3533 16.8 15.8667 16.8H17.7333C18.2467 16.8 18.6667 16.38 18.6667 15.8667V13.0667H21.4667C21.98 13.0667 22.4 12.6467 22.4 12.1333V10.2667C22.4 9.75333 21.98 9.33333 21.4667 9.33333H18.6667V6.53333C18.6667 6.02 18.2467 5.6 17.7333 5.6H15.8667ZM17.2667 25.2C18.0425 25.2 18.6667 25.8242 18.6667 26.6C18.6667 27.3758 18.0425 28 17.2667 28H7.93333C3.5525 28 0 24.4475 0 20.0667V7C0 6.22417 0.624167 5.6 1.4 5.6C2.17583 5.6 2.8 6.22417 2.8 7V20.0667C2.8 22.9017 5.09833 25.2 7.93333 25.2H17.2667Z" fill="#BC03EA"/>
</svg>
