<svg width="22" height="22" viewBox="0 0 22 22" fill="none" xmlns="http://www.w3.org/2000/svg">
<g clip-path="url(#clip0_18_1288)">
<path d="M18.3333 20.1667H3.66663V18.3334C3.66663 17.1178 4.14951 15.9521 5.00905 15.0925C5.8686 14.233 7.03438 13.7501 8.24996 13.7501H13.75C14.9655 13.7501 16.1313 14.233 16.9909 15.0925C17.8504 15.9521 18.3333 17.1178 18.3333 18.3334V20.1667ZM11 11.9167C10.2777 11.9167 9.56249 11.7745 8.8952 11.4981C8.22791 11.2217 7.62159 10.8166 7.11087 10.3058C6.60015 9.79511 6.19502 9.1888 5.91862 8.52151C5.64222 7.85422 5.49996 7.13902 5.49996 6.41675C5.49996 5.69448 5.64222 4.97928 5.91862 4.31199C6.19502 3.6447 6.60015 3.03838 7.11087 2.52766C7.62159 2.01694 8.22791 1.61181 8.8952 1.33541C9.56249 1.05901 10.2777 0.916748 11 0.916748C12.4587 0.916748 13.8576 1.49621 14.889 2.52766C15.9205 3.55911 16.5 4.95806 16.5 6.41675C16.5 7.87544 15.9205 9.27439 14.889 10.3058C13.8576 11.3373 12.4587 11.9167 11 11.9167Z" fill="#077DF8"/>
</g>
<defs>
<clipPath id="clip0_18_1288">
<rect width="22" height="22" fill="white"/>
</clipPath>
</defs>
</svg>
