<svg width="16" height="14" viewBox="0 0 16 14" fill="none" xmlns="http://www.w3.org/2000/svg">
<path d="M1.71439 9.85716C2.34557 9.85716 2.85725 9.08965 2.85725 8.14287C2.85725 7.1961 2.34557 6.42859 1.71439 6.42859C1.08321 6.42859 0.571533 7.1961 0.571533 8.14287C0.571533 9.08965 1.08321 9.85716 1.71439 9.85716Z" stroke="#222222" stroke-width="1.71429" stroke-linecap="round" stroke-linejoin="round"/>
<path d="M5.14286 4.71434C5.77404 4.71434 6.28571 3.94683 6.28571 3.00005C6.28571 2.05328 5.77404 1.28577 5.14286 1.28577C4.51167 1.28577 4 2.05328 4 3.00005C4 3.94683 4.51167 4.71434 5.14286 4.71434Z" stroke="#222222" stroke-width="1.71429" stroke-linecap="round" stroke-linejoin="round"/>
<path d="M10.8572 4.71434C11.4884 4.71434 12.0001 3.94683 12.0001 3.00005C12.0001 2.05328 11.4884 1.28577 10.8572 1.28577C10.226 1.28577 9.71436 2.05328 9.71436 3.00005C9.71436 3.94683 10.226 4.71434 10.8572 4.71434Z" stroke="#222222" stroke-width="1.71429" stroke-linecap="round" stroke-linejoin="round"/>
<path d="M14.2859 9.85716C14.9171 9.85716 15.4288 9.08965 15.4288 8.14287C15.4288 7.1961 14.9171 6.42859 14.2859 6.42859C13.6547 6.42859 13.1431 7.1961 13.1431 8.14287C13.1431 9.08965 13.6547 9.85716 14.2859 9.85716Z" stroke="#222222" stroke-width="1.71429" stroke-linecap="round" stroke-linejoin="round"/>
<path d="M11.4287 10.4286C11.4287 12.0057 9.57725 12.7143 8.0001 12.7143C6.42296 12.7143 4.57153 12.0057 4.57153 10.4286C4.57153 8.85145 5.71439 6.42859 8.0001 6.42859C10.2858 6.42859 11.4287 8.85145 11.4287 10.4286Z" stroke="#222222" stroke-width="1.71429" stroke-linecap="round" stroke-linejoin="round"/>
</svg>
