<svg width="16" height="16" viewBox="0 0 16 16" fill="none" xmlns="http://www.w3.org/2000/svg">
<path d="M8 15.8094C10.1217 15.8094 12.1566 14.9766 13.6569 13.4941C15.1571 12.0117 16 10.0011 16 7.90469C16 5.80823 15.1571 3.79765 13.6569 2.31523C12.1566 0.832813 10.1217 0 8 0C5.87827 0 3.84344 0.832813 2.34315 2.31523C0.842855 3.79765 0 5.80823 0 7.90469C0 10.0011 0.842855 12.0117 2.34315 13.4941C3.84344 14.9766 5.87827 15.8094 8 15.8094ZM5.12813 10.0507C5.6875 10.6899 6.64375 11.363 8 11.363C9.35625 11.363 10.3125 10.6899 10.8719 10.0507C11.0531 9.84381 11.3687 9.82219 11.5781 10.0013C11.7875 10.1804 11.8094 10.4922 11.6281 10.6991C10.9313 11.4896 9.72188 12.3511 8 12.3511C6.27812 12.3511 5.06875 11.4896 4.37187 10.6991C4.19062 10.4922 4.2125 10.1804 4.42188 10.0013C4.63125 9.82219 4.94688 9.84381 5.12813 10.0507ZM4.5125 6.42256C4.5125 6.1605 4.61786 5.90918 4.80539 5.72388C4.99293 5.53857 5.24728 5.43447 5.5125 5.43447C5.77772 5.43447 6.03207 5.53857 6.21961 5.72388C6.40714 5.90918 6.5125 6.1605 6.5125 6.42256C6.5125 6.68461 6.40714 6.93594 6.21961 7.12124C6.03207 7.30654 5.77772 7.41064 5.5125 7.41064C5.24728 7.41064 4.99293 7.30654 4.80539 7.12124C4.61786 6.93594 4.5125 6.68461 4.5125 6.42256ZM10.5125 5.43447C10.7777 5.43447 11.0321 5.53857 11.2196 5.72388C11.4071 5.90918 11.5125 6.1605 11.5125 6.42256C11.5125 6.68461 11.4071 6.93594 11.2196 7.12124C11.0321 7.30654 10.7777 7.41064 10.5125 7.41064C10.2473 7.41064 9.99293 7.30654 9.80539 7.12124C9.61786 6.93594 9.5125 6.68461 9.5125 6.42256C9.5125 6.1605 9.61786 5.90918 9.80539 5.72388C9.99293 5.53857 10.2473 5.43447 10.5125 5.43447Z" fill="#100909"/>
</svg>
