<svg width="18" height="19" viewBox="0 0 18 19" fill="none" xmlns="http://www.w3.org/2000/svg">
<path fill-rule="evenodd" clip-rule="evenodd" d="M12.0001 17C12.0003 17.5046 11.8097 17.9906 11.4666 18.3605C11.1235 18.7305 10.6532 18.9572 10.1501 18.995L10.0001 19H8.00009C7.49552 19.0002 7.00953 18.8096 6.63954 18.4665C6.26956 18.1234 6.04294 17.6532 6.00509 17.15L6.00009 17H12.0001ZM9.00009 9.54067e-10C10.8151 -2.9945e-05 12.5591 0.704894 13.8643 1.96607C15.1695 3.22726 15.9339 4.94609 15.9961 6.76L16.0001 7V10.764L17.8221 14.408C17.9016 14.567 17.9414 14.7429 17.9381 14.9206C17.9347 15.0984 17.8884 15.2727 17.8029 15.4286C17.7175 15.5845 17.5956 15.7174 17.4476 15.8158C17.2996 15.9143 17.1299 15.9754 16.9531 15.994L16.8381 16H1.16209C0.984257 16.0001 0.809059 15.957 0.651514 15.8745C0.493968 15.792 0.358771 15.6725 0.25751 15.5264C0.156248 15.3802 0.0919401 15.2116 0.0700969 15.0351C0.0482538 14.8586 0.0695268 14.6795 0.132093 14.513L0.178093 14.408L2.00009 10.764V7C2.00009 5.14348 2.73759 3.36301 4.05035 2.05025C5.3631 0.737498 7.14358 9.54069e-10 9.00009 9.54067e-10ZM9.00009 2C7.71163 2.00007 6.47293 2.49754 5.54232 3.38866C4.6117 4.27978 4.06101 5.49575 4.00509 6.783L4.00009 7V10.764C4.0001 11.012 3.95399 11.2579 3.86409 11.489L3.78909 11.659L2.61909 14H15.3821L14.2121 11.658C14.1011 11.4363 14.0323 11.1959 14.0091 10.949L14.0001 10.764V7C14.0001 5.67392 13.4733 4.40215 12.5356 3.46447C11.5979 2.52678 10.3262 2 9.00009 2Z" fill="white"/>
</svg>
