<svg width="27" height="30" viewBox="0 0 27 30" fill="none" xmlns="http://www.w3.org/2000/svg">
<path d="M0 24V19.8C0 18.95 0.219 18.1685 0.657 17.4555C1.095 16.7425 1.676 16.199 2.4 15.825C3.95 15.05 5.525 14.4685 7.125 14.0805C8.725 13.6925 10.35 13.499 12 13.5C12.5 13.5 13 13.519 13.5 13.557C14 13.595 14.5 13.651 15 13.725V16.7625C14.5 16.6625 14 16.5935 13.5 16.5555C13 16.5175 12.5 16.499 12 16.5C10.6 16.5 9.2125 16.669 7.8375 17.007C6.4625 17.345 5.1 17.851 3.75 18.525C3.525 18.65 3.3435 18.825 3.2055 19.05C3.0675 19.275 2.999 19.525 3 19.8V21H15V24H0ZM12 12C10.35 12 8.9375 11.4125 7.7625 10.2375C6.5875 9.0625 6 7.65 6 6C6 4.35 6.5875 2.9375 7.7625 1.7625C8.9375 0.5875 10.35 0 12 0C13.65 0 15.0625 0.5875 16.2375 1.7625C17.4125 2.9375 18 4.35 18 6C18 7.65 17.4125 9.0625 16.2375 10.2375C15.0625 11.4125 13.65 12 12 12ZM12 9C12.825 9 13.5315 8.706 14.1195 8.118C14.7075 7.53 15.001 6.824 15 6C15 5.175 14.706 4.4685 14.118 3.8805C13.53 3.2925 12.824 2.999 12 3C11.175 3 10.4685 3.294 9.8805 3.882C9.2925 4.47 8.999 5.176 9 6C9 6.825 9.294 7.5315 9.882 8.1195C10.47 8.7075 11.176 9.001 12 9ZM21 30V22.5H18V13.5H27L24 19.5H27L21 30Z" fill="#222222"/>
</svg>
