<svg width="56" height="56" viewBox="0 0 56 56" fill="none" xmlns="http://www.w3.org/2000/svg">
<path d="M6 38C8.20914 38 10 35.3137 10 32C10 28.6863 8.20914 26 6 26C3.79086 26 2 28.6863 2 32C2 35.3137 3.79086 38 6 38Z" stroke="#222222" stroke-width="1.71429" stroke-linecap="round" stroke-linejoin="round"/>
<path d="M18 20C20.2091 20 22 17.3137 22 14C22 10.6863 20.2091 8 18 8C15.7909 8 14 10.6863 14 14C14 17.3137 15.7909 20 18 20Z" stroke="#222222" stroke-width="1.71429" stroke-linecap="round" stroke-linejoin="round"/>
<path d="M38 20C40.2091 20 42 17.3137 42 14C42 10.6863 40.2091 8 38 8C35.7909 8 34 10.6863 34 14C34 17.3137 35.7909 20 38 20Z" stroke="#222222" stroke-width="1.71429" stroke-linecap="round" stroke-linejoin="round"/>
<path d="M50 38C52.2091 38 54 35.3137 54 32C54 28.6863 52.2091 26 50 26C47.7909 26 46 28.6863 46 32C46 35.3137 47.7909 38 50 38Z" stroke="#222222" stroke-width="1.71429" stroke-linecap="round" stroke-linejoin="round"/>
<path d="M40 40C40 45.52 33.52 48 28 48C22.48 48 16 45.52 16 40C16 34.48 20 26 28 26C36 26 40 34.48 40 40Z" stroke="#222222" stroke-width="1.71429" stroke-linecap="round" stroke-linejoin="round"/>
</svg>
