<svg width="20" height="16" viewBox="0 0 20 16" fill="none" xmlns="http://www.w3.org/2000/svg">
<g clip-path="url(#clip0_313_613)">
<path d="M5.5 9C5.95963 9 6.41475 8.90947 6.83939 8.73358C7.26403 8.55769 7.64987 8.29988 7.97487 7.97487C8.29988 7.64987 8.55769 7.26403 8.73358 6.83939C8.90947 6.41475 9 5.95963 9 5.5C9 5.04037 8.90947 4.58525 8.73358 4.16061C8.55769 3.73597 8.29988 3.35013 7.97487 3.02513C7.64987 2.70012 7.26403 2.44231 6.83939 2.26642C6.41475 2.09053 5.95963 2 5.5 2C5.04037 2 4.58525 2.09053 4.16061 2.26642C3.73597 2.44231 3.35013 2.70012 3.02513 3.02513C2.70012 3.35013 2.44231 3.73597 2.26642 4.16061C2.09053 4.58525 2 5.04037 2 5.5C2 5.95963 2.09053 6.41475 2.26642 6.83939C2.44231 7.26403 2.70012 7.64987 3.02513 7.97487C3.35013 8.29988 3.73597 8.55769 4.16061 8.73358C4.58525 8.90947 5.04037 9 5.5 9ZM11 5.5C11 8.19688 9.05938 10.4406 6.5 10.9094V12H7.5C8.05313 12 8.5 12.4469 8.5 13C8.5 13.5531 8.05313 14 7.5 14H6.5V15C6.5 15.5531 6.05313 16 5.5 16C4.94687 16 4.5 15.5531 4.5 15V14H3.5C2.94687 14 2.5 13.5531 2.5 13C2.5 12.4469 2.94687 12 3.5 12H4.5V10.9094C1.94062 10.4406 0 8.19688 0 5.5C0 2.4625 2.4625 0 5.5 0C8.5375 0 11 2.4625 11 5.5ZM8.49687 11.2688C9.1 10.9531 9.65 10.5469 10.125 10.0688C10.75 10.6469 11.5844 11 12.5031 11C14.4375 11 16.0031 9.43438 16.0031 7.5C16.0031 5.56562 14.4375 4 12.5031 4C12.2781 4 12.0563 4.02188 11.8438 4.0625C11.6906 3.39062 11.4375 2.75938 11.0938 2.18125C11.5406 2.0625 12.0125 2 12.5 2C13.6562 2 14.7312 2.35625 15.6187 2.96875L16.2625 2.325L15.2188 1.28125C15.0031 1.06562 14.9406 0.74375 15.0562 0.4625C15.1719 0.18125 15.4469 0 15.75 0H19.25C19.6656 0 20 0.334375 20 0.75V4.25C20 4.55312 19.8188 4.82812 19.5375 4.94375C19.2563 5.05937 18.9344 4.99688 18.7188 4.78125L17.675 3.7375L17.0312 4.38125C17.6406 5.26875 18 6.34063 18 7.5C18 10.5375 15.5375 13 12.5 13C10.9219 13 9.5 12.3344 8.49687 11.2688Z" fill="#007DF8"/>
</g>
<defs>
<clipPath id="clip0_313_613">
<rect width="20" height="16" fill="white"/>
</clipPath>
</defs>
</svg>
