<svg width="24" height="28" viewBox="0 0 24 28" fill="none" xmlns="http://www.w3.org/2000/svg">
<path d="M4 0C1.79375 0 0 1.56953 0 3.5V24.5C0 26.4305 1.79375 28 4 28H20C22.2062 28 24 26.4305 24 24.5V8.75H16C14.8938 8.75 14 7.96797 14 7V0H4ZM16 0V7H24L16 0ZM6.5 10.7188H11C13.0688 10.7188 14.75 12.1898 14.75 14C14.75 15.3945 13.7562 16.5812 12.3562 17.057L15.0437 19.2609L17.1562 17.5656C17.6625 17.1555 18.4562 17.1883 18.925 17.6313C19.3937 18.0742 19.3563 18.7688 18.85 19.1789L16.875 20.7648L18.8563 22.3891C19.3625 22.8047 19.3875 23.4938 18.9125 23.9367C18.4375 24.3797 17.65 24.4016 17.1437 23.9859L15.025 22.2469L12.8438 23.9969C12.3375 24.407 11.5437 24.3742 11.075 23.9312C10.6062 23.4883 10.6437 22.7937 11.15 22.3836L13.1875 20.7484L9.1375 17.4234C9.08125 17.3797 9.0375 17.3305 8.99375 17.2812H7.75V19.6875C7.75 20.2891 7.1875 20.7812 6.5 20.7812C5.8125 20.7812 5.25 20.2891 5.25 19.6875V16.1875V11.8125C5.25 11.2109 5.8125 10.7188 6.5 10.7188ZM11 15.0938C11.6875 15.0938 12.25 14.6016 12.25 14C12.25 13.3984 11.6875 12.9062 11 12.9062H7.75V15.0938H11Z" fill="#E78008"/>
</svg>
