<svg width="48" height="48" viewBox="0 0 48 48" fill="none" xmlns="http://www.w3.org/2000/svg">
<path fill-rule="evenodd" clip-rule="evenodd" d="M36.9167 13.6667C36.9167 20.8005 31.1339 26.5833 24 26.5833C16.8661 26.5833 11.0833 20.8005 11.0833 13.6667C11.0833 6.53279 16.8661 0.75 24 0.75C31.1339 0.75 36.9167 6.53279 36.9167 13.6667ZM34.3333 13.6667C34.3333 16.4072 33.2446 19.0356 31.3068 20.9734C29.3689 22.9113 26.7406 24 24 24C21.2594 24 18.6311 22.9113 16.6932 20.9734C14.7554 19.0356 13.6667 16.4072 13.6667 13.6667C13.6667 10.9261 14.7554 8.29777 16.6932 6.3599C18.6311 4.42202 21.2594 3.33333 24 3.33333C26.7406 3.33333 29.3689 4.42202 31.3068 6.3599C33.2446 8.29777 34.3333 10.9261 34.3333 13.6667ZM16.1389 30.271L16.1531 30.2995L16.25 30.4893H31.4258C31.7216 29.9287 32.392 29.0349 33.0417 29.1835C34.5012 29.5154 35.9712 29.9778 37.383 30.5475L37.4256 30.5268L37.4398 30.5552L37.4501 30.5746C42.7653 32.7342 47.25 36.3948 47.25 40.2362V47.25H0.75V40.2362C0.75 35.3602 7.97817 30.7722 14.9583 29.1835C15.528 29.0543 15.8664 29.726 16.1389 30.271ZM35.2427 32.503C34.6885 32.3091 34.1281 32.1337 33.5622 31.9773L32.9861 33.0727H14.691L14.1562 32.0561L13.6912 32.1956C13.6822 32.2809 13.6744 32.3765 13.6705 32.485C13.6537 32.9306 13.6873 33.4589 13.761 33.9962C13.8365 34.5566 13.9575 35.11 14.1226 35.6508C15.03 35.7583 15.8702 36.183 16.4948 36.8498C17.1194 37.5167 17.4883 38.3828 17.5364 39.2952C17.5844 40.2077 17.3084 41.1077 16.7573 41.8365C16.2061 42.5652 15.4151 43.0757 14.5241 43.2779C13.633 43.48 12.6992 43.3608 11.8875 42.9413C11.0758 42.5218 10.4385 41.8289 10.088 40.9851C9.73761 40.1413 9.69663 39.2008 9.97234 38.3296C10.248 37.4585 10.8227 36.7129 11.5948 36.2243L11.5845 36.1882C11.4124 35.5842 11.2842 34.9687 11.2009 34.3462C11.1461 33.9486 11.1099 33.5486 11.0924 33.1476C9.49587 33.8296 8.00658 34.6537 6.75883 35.563C4.27625 37.3765 3.33333 39.0712 3.33333 40.2362V44.6667H44.6667V40.2362C44.6667 39.0699 43.7237 37.3752 41.2412 35.5643C40.1587 34.7859 39.0058 34.1105 37.7976 33.5467C37.745 34.2467 37.6379 34.9416 37.4772 35.625H38.2083C38.4481 35.6251 38.6832 35.692 38.8871 35.8182C39.0911 35.9443 39.2559 36.1248 39.3631 36.3393L40.6548 38.9226C40.7452 39.1022 40.7917 39.2998 40.7917 39.5V42.0833C40.7917 42.4259 40.6556 42.7544 40.4133 42.9967C40.1711 43.2389 39.8426 43.375 39.5 43.375H36.9167V40.7917H38.2083V39.8048L37.4101 38.2083H33.8399L33.0417 39.8048V40.7917H34.3333V43.375H31.75C31.4074 43.375 31.0789 43.2389 30.8367 42.9967C30.5944 42.7544 30.4583 42.4259 30.4583 42.0833V39.5C30.4583 39.2998 30.5048 39.1022 30.5953 38.9226L31.8869 36.3393C31.9941 36.1248 32.1589 35.9443 32.3629 35.8182C32.5668 35.692 32.8019 35.6251 33.0417 35.625H34.8009C34.8164 35.5733 34.8332 35.5217 34.8487 35.4648C34.9701 35.0502 35.0786 34.5348 35.1522 33.9975C35.2246 33.4653 35.2582 32.9448 35.2427 32.503ZM14.9583 39.5C14.9583 40.2414 14.3616 40.811 13.6667 40.811C12.9717 40.811 12.375 40.2427 12.375 39.5C12.375 38.7586 12.9717 38.189 13.6667 38.189C14.3616 38.189 14.9583 38.7573 14.9583 39.5Z" fill="#222222"/>
</svg>
