<svg width="62" height="62" viewBox="0 0 62 62" fill="none" xmlns="http://www.w3.org/2000/svg">
<path fill-rule="evenodd" clip-rule="evenodd" d="M43.9167 20.6667C43.9167 27.8005 38.1339 33.5833 31 33.5833C23.8661 33.5833 18.0833 27.8005 18.0833 20.6667C18.0833 13.5328 23.8661 7.75 31 7.75C38.1339 7.75 43.9167 13.5328 43.9167 20.6667ZM41.3333 20.6667C41.3333 23.4072 40.2446 26.0356 38.3068 27.9734C36.3689 29.9113 33.7406 31 31 31C28.2594 31 25.6311 29.9113 23.6932 27.9734C21.7554 26.0356 20.6667 23.4072 20.6667 20.6667C20.6667 17.9261 21.7554 15.2978 23.6932 13.3599C25.6311 11.422 28.2594 10.3333 31 10.3333C33.7406 10.3333 36.3689 11.422 38.3068 13.3599C40.2446 15.2978 41.3333 17.9261 41.3333 20.6667ZM23.1389 37.271L23.1531 37.2995L23.25 37.4893H38.4258C38.7216 36.9287 39.392 36.0349 40.0417 36.1835C41.5012 36.5154 42.9712 36.9778 44.383 37.5475L44.4256 37.5268L44.4398 37.5552L44.4501 37.5746C49.7653 39.7342 54.25 43.3948 54.25 47.2362V54.25H7.75V47.2362C7.75 42.3602 14.9782 37.7722 21.9583 36.1835C22.528 36.0543 22.8664 36.726 23.1389 37.271ZM42.2427 39.503C41.6885 39.3091 41.1281 39.1337 40.5622 38.9773L39.9861 40.0727H21.691L21.1562 39.0561L20.6912 39.1956C20.6822 39.2809 20.6744 39.3765 20.6705 39.485C20.6537 39.9306 20.6873 40.4589 20.761 40.9962C20.8365 41.5566 20.9575 42.11 21.1226 42.6508C22.03 42.7583 22.8702 43.183 23.4948 43.8498C24.1194 44.5167 24.4883 45.3828 24.5364 46.2952C24.5844 47.2077 24.3084 48.1077 23.7573 48.8365C23.2061 49.5652 22.4151 50.0757 21.5241 50.2779C20.633 50.48 19.6992 50.3608 18.8875 49.9413C18.0758 49.5218 17.4385 48.8289 17.088 47.9851C16.7376 47.1413 16.6966 46.2008 16.9723 45.3296C17.248 44.4585 17.8227 43.7129 18.5948 43.2243L18.5845 43.1882C18.4124 42.5842 18.2842 41.9687 18.2009 41.3462C18.1461 40.9486 18.1099 40.5486 18.0924 40.1476C16.4959 40.8296 15.0066 41.6537 13.7588 42.563C11.2763 44.3765 10.3333 46.0712 10.3333 47.2362V51.6667H51.6667V47.2362C51.6667 46.0699 50.7237 44.3752 48.2412 42.5643C47.1587 41.7859 46.0058 41.1105 44.7976 40.5467C44.745 41.2467 44.6379 41.9416 44.4772 42.625H45.2083C45.4481 42.6251 45.6832 42.692 45.8871 42.8182C46.0911 42.9443 46.2559 43.1248 46.3631 43.3393L47.6548 45.9226C47.7452 46.1022 47.7917 46.2998 47.7917 46.5V49.0833C47.7917 49.4259 47.6556 49.7544 47.4133 49.9967C47.1711 50.2389 46.8426 50.375 46.5 50.375H43.9167V47.7917H45.2083V46.8048L44.4101 45.2083H40.8399L40.0417 46.8048V47.7917H41.3333V50.375H38.75C38.4074 50.375 38.0789 50.2389 37.8367 49.9967C37.5944 49.7544 37.4583 49.4259 37.4583 49.0833V46.5C37.4583 46.2998 37.5048 46.1022 37.5953 45.9226L38.8869 43.3393C38.9941 43.1248 39.1589 42.9443 39.3629 42.8182C39.5668 42.692 39.8019 42.6251 40.0417 42.625H41.8009C41.8164 42.5733 41.8332 42.5217 41.8487 42.4648C41.9701 42.0502 42.0786 41.5348 42.1522 40.9975C42.2246 40.4653 42.2582 39.9448 42.2427 39.503ZM21.9583 46.5C21.9583 47.2414 21.3616 47.811 20.6667 47.811C19.9717 47.811 19.375 47.2427 19.375 46.5C19.375 45.7586 19.9717 45.189 20.6667 45.189C21.3616 45.189 21.9583 45.7573 21.9583 46.5Z" fill="#222222"/>
</svg>
