<svg width="22" height="22" viewBox="0 0 22 22" fill="none" xmlns="http://www.w3.org/2000/svg">
<path d="M12.8333 9.16667V12.8333H9.16667V9.16667H12.8333ZM14.6667 9.16667H19.25V12.8333H14.6667V9.16667ZM12.8333 19.25H9.16667V14.6667H12.8333V19.25ZM14.6667 19.25V14.6667H19.25V18.3333C19.25 18.5764 19.1534 18.8096 18.9815 18.9815C18.8096 19.1534 18.5764 19.25 18.3333 19.25H14.6667ZM12.8333 2.75V7.33333H9.16667V2.75H12.8333ZM14.6667 2.75H18.3333C18.5764 2.75 18.8096 2.84658 18.9815 3.01849C19.1534 3.19039 19.25 3.42355 19.25 3.66667V7.33333H14.6667V2.75ZM7.33333 9.16667V12.8333H2.75V9.16667H7.33333ZM7.33333 19.25H3.66667C3.42355 19.25 3.19039 19.1534 3.01849 18.9815C2.84658 18.8096 2.75 18.5764 2.75 18.3333V14.6667H7.33333V19.25ZM7.33333 2.75V7.33333H2.75V3.66667C2.75 3.42355 2.84658 3.19039 3.01849 3.01849C3.19039 2.84658 3.42355 2.75 3.66667 2.75H7.33333Z" fill="#007DF8"/>
</svg>
