<svg width="16" height="16" viewBox="0 0 16 16" fill="none" xmlns="http://www.w3.org/2000/svg">
<g clip-path="url(#clip0_134_484)">
<path d="M8.41876 0.090625C8.28751 0.03125 8.14689 0 8.00001 0C7.85314 0 7.71251 0.03125 7.58126 0.090625L1.69689 2.5875C1.00939 2.87813 0.496889 3.55625 0.500014 4.375C0.515639 7.475 1.79064 13.1469 7.17501 15.725C7.69689 15.975 8.30314 15.975 8.82501 15.725C14.2094 13.1469 15.4844 7.475 15.5 4.375C15.5031 3.55625 14.9906 2.87813 14.3031 2.5875L8.41876 0.090625ZM5.02814 8.94375C5.17814 8.98125 5.33751 9 5.50001 9C6.60314 9 7.50001 8.10312 7.50001 7V5H8.88126C9.25939 5 9.60626 5.2125 9.77501 5.55312L10 6H12C12.275 6 12.5 6.225 12.5 6.5V7.5C12.5 8.88125 11.3813 10 10 10H8.50001V11.5844C8.50001 11.8125 8.31564 12 8.08439 12C8.02814 12 7.97189 11.9875 7.92189 11.9656L4.83751 10.6438C4.63126 10.5563 4.50001 10.3531 4.50001 10.1313C4.50001 10.0438 4.51876 9.95938 4.55939 9.88125L5.02814 8.94375ZM5.00001 5H6.25001H6.50001V6V7C6.50001 7.55312 6.05314 8 5.50001 8C4.94689 8 4.50001 7.55312 4.50001 7V5.5C4.50001 5.225 4.72501 5 5.00001 5ZM9.00001 6.5C9.00001 6.36739 8.94734 6.24021 8.85357 6.14645C8.7598 6.05268 8.63262 6 8.50001 6C8.36741 6 8.24023 6.05268 8.14646 6.14645C8.05269 6.24021 8.00001 6.36739 8.00001 6.5C8.00001 6.63261 8.05269 6.75979 8.14646 6.85355C8.24023 6.94732 8.36741 7 8.50001 7C8.63262 7 8.7598 6.94732 8.85357 6.85355C8.94734 6.75979 9.00001 6.63261 9.00001 6.5Z" fill="black"/>
</g>
<defs>
<clipPath id="clip0_134_484">
<rect width="16" height="16" fill="white"/>
</clipPath>
</defs>
</svg>
