<svg width="29" height="24" viewBox="0 0 29 24" fill="none" xmlns="http://www.w3.org/2000/svg">
<path d="M9.28058 23.5C19.9566 23.5 25.7949 14.6521 25.7949 6.97956C25.7949 6.72829 25.7898 6.47816 25.7784 6.22907C26.9144 5.40677 27.8948 4.38864 28.6737 3.2224C27.6337 3.68493 26.5145 3.99623 25.3405 4.13659C26.5389 3.41778 27.4588 2.2806 27.8929 0.925098C26.7535 1.60124 25.507 2.07788 24.2072 2.33448C23.1481 1.20587 21.6402 0.5 19.9705 0.5C16.7652 0.5 14.166 3.10026 14.166 6.30549C14.166 6.76117 14.217 7.20427 14.3166 7.62943C9.49264 7.3866 5.2151 5.07614 2.35235 1.56295C1.83674 2.44904 1.56554 3.45611 1.56644 4.4813C1.56644 6.49576 2.59109 8.27406 4.14934 9.31446C3.22762 9.2863 2.32613 9.03725 1.52067 8.58824C1.51981 8.61262 1.51981 8.63636 1.51981 8.66241C1.51981 11.4743 3.52046 13.8221 6.17627 14.3541C5.67748 14.49 5.16277 14.5587 4.6458 14.5584C4.27245 14.5584 3.90859 14.5217 3.55496 14.4538C4.2939 16.7608 6.43658 18.4396 8.97698 18.4865C6.99042 20.0441 4.48796 20.9719 1.76815 20.9719C1.30548 20.9723 0.843182 20.9454 0.383667 20.8915C2.95242 22.5385 6.00257 23.4996 9.28087 23.4996" fill="#1D9BF0"/>
</svg>
