<svg width="20" height="19" viewBox="0 0 20 19" fill="none" xmlns="http://www.w3.org/2000/svg">
<path d="M11 14.343V16.2554H15V18.1678H5.00004V16.2554H9.00004V14.343H0.992041C0.860727 14.3422 0.730858 14.3167 0.609879 14.2679C0.488899 14.2191 0.379188 14.1479 0.287032 14.0584C0.194877 13.969 0.122089 13.863 0.0728414 13.7466C0.0235937 13.6302 -0.00114581 13.5057 4.07459e-05 13.3801V0.962893C4.07459e-05 0.431246 0.455041 0 0.992041 0H19.008C19.556 0 20 0.429334 20 0.962893V13.3801C20 13.9118 19.545 14.343 19.008 14.343H11V14.343Z" fill="#007DF8"/>
</svg>
